Coordinates
version=1
nRows=5
nColumns=40
inDegrees=yes

Units are S.I. units (second, meters, Newtons, ...)
Angles are in degrees.

endheader
time	pelvis_tilt	pelvis_list	pelvis_rotation	pelvis_tx	pelvis_ty	pelvis_tz	hip_flexion_r	hip_adduction_r	hip_rotation_r	knee_angle_r	knee_angle_r_beta	ankle_angle_r	subtalar_angle_r	mtp_angle_r	hip_flexion_l	hip_adduction_l	hip_rotation_l	knee_angle_l	knee_angle_l_beta	ankle_angle_l	subtalar_angle_l	mtp_angle_l	lumbar_extension	lumbar_bending	lumbar_rotation	arm_flex_r	arm_add_r	arm_rot_r	elbow_flex_r	pro_sup_r	wrist_flex_r	wrist_dev_r	arm_flex_l	arm_add_l	arm_rot_l	elbow_flex_l	pro_sup_l	wrist_flex_l	wrist_dev_l
     49.78750000	     -2.96028614	     -5.76403238	     -1.19186731	      1.07749468	      0.93551981	      0.41645490	     27.83198846	     -5.40976162	     -5.55392735	     56.38782100	     56.38782100	      2.10329491	    -15.04367713	     -0.78512268	     12.49121693	     -7.54490327	    -10.87421538	     21.36157807	     21.36157807	     12.93949165	    -11.39150661	     -1.03630823	    -10.03073629	      5.85539843	      0.87712796	     12.12142989	    -11.94925383	      3.28027849	     52.79078508	     45.85053621	      0.00000000	      0.00000000	     14.35311257	    -14.60827978	      0.99117952	     51.66827699	     45.72399860	      0.00000000	      0.00000000
     49.80100000	     -2.96729880	     -5.93834364	     -1.62661818	      1.07710571	      0.93602486	      0.41660944	     28.10458800	     -5.06073310	     -5.57894411	     53.77446187	     53.77446187	      2.26791280	    -14.94558548	     -0.61093926	     11.76997209	     -7.69949047	    -11.17257097	     20.83583244	     20.83583244	     13.08041654	    -11.44863517	     -1.03951901	    -10.12261861	      6.10381479	      1.28064372	     10.43736050	    -12.58006868	      3.32197993	     50.81826628	     45.90527690	      0.00000000	      0.00000000	     15.35510681	    -14.58289511	      0.65354884	     52.98657624	     45.78764455	      0.00000000	      0.00000000
     49.81450000	     -2.96432989	     -5.97938448	     -2.08576178	      1.07677661	      0.93637125	      0.41688176	     28.23186308	     -4.80026354	     -5.53632596	     50.80861199	     50.80861199	      2.36994055	    -14.75671465	     -0.75205778	     11.02970063	     -7.72730447	    -11.60566737	     20.31822753	     20.31822753	     13.16856212	    -11.42879758	     -1.30272936	    -10.21268350	      6.17134607	      1.67737399	      9.24374212	    -12.89920493	      3.13308816	     47.40936672	     46.02093706	      0.00000000	      0.00000000	     16.11568702	    -14.66138270	      0.13430640	     55.02261668	     45.88084054	      0.00000000	      0.00000000
     49.82800000	     -3.12947224	     -6.16211317	     -2.43330610	      1.07649285	      0.93643623	      0.41723873	     28.30751012	     -4.41757507	     -5.74290906	     47.42238671	     47.42238671	      2.64627837	    -14.17396545	     -0.64413037	     10.50901277	     -7.90026421	    -11.84290844	     19.82131395	     19.82131395	     13.30637314	    -11.43401014	     -1.39257175	    -10.10002875	      6.50260261	      1.66227842	      7.69039132	    -13.22435527	      3.07079420	     45.52223772	     46.08055427	      0.00000000	      0.00000000	     16.79731125	    -14.96250920	     -0.24357886	     56.21839397	     45.93949150	      0.00000000	      0.00000000
     49.84150000	     -3.13593339	     -6.10679687	     -2.87077948	      1.07631359	      0.93663878	      0.41777693	     28.01327193	     -4.18528335	     -5.78828920	     43.54949929	     43.54949929	      2.08947565	    -13.72608862	     -2.87407693	      9.70127921	     -7.80340211	    -12.25740080	     19.13315163	     19.13315163	     12.96740929	    -11.61000612	     -2.47425006	    -10.16735621	      6.41063245	      0.71809243	      8.84974592	    -12.24218117	      1.65939241	     37.66601479	     46.38304379	      0.00000000	      0.00000000	     15.86450988	    -15.55518020	     -2.75442379	     60.61453736	     46.28336807	      0.00000000	      0.00000000
